<svg viewBox="0 0 100 100" xmlns="http://www.w3.org/2000/svg">
  <path d="M40 33 C44 28 36 24 40 19 C44 14 36 10 40 6" fill="none" stroke="#F2A623" stroke-width="3.4" stroke-linecap="round"/>
  <path d="M50 34 C54 29 46 24 50 18 C54 13 46 9 50 4" fill="none" stroke="#E85D24" stroke-width="3.6" stroke-linecap="round"/>
  <path d="M60 33 C64 28 56 24 60 19 C64 14 56 10 60 6" fill="none" stroke="#F2A623" stroke-width="3.4" stroke-linecap="round"/>
  <line x1="27" y1="69" x2="73" y2="69" stroke="#7d8088" stroke-width="3" stroke-linecap="round"/>
  <g fill="none" stroke="#E0392C" stroke-width="5" stroke-linecap="round" stroke-linejoin="round">
    <circle cx="50" cy="45" r="6.5" fill="#E0392C" stroke="none"/>
    <line x1="50" y1="52" x2="50" y2="64"/>
    <path d="M50 55 L39 65"/>
    <path d="M50 55 L61 65"/>
    <path d="M50 64 L38 68 L37 84"/>
    <path d="M50 64 L62 68 L63 84"/>
    <line x1="32" y1="85" x2="40" y2="85"/>
    <line x1="60" y1="85" x2="68" y2="85"/>
  </g>
</svg>
